<svg xmlns="http://www.w3.org/2000/svg" width="192" height="205" fill="none" viewBox="0 0 192 205">
  <path fill="#E6E6E6" d="M144.538 153.992c-.35.1-.718.1-1.069 0l-66.503-18.73a2.148 2.148 0 0 1-1.289-1.052 2.44 2.44 0 0 1-.23-1.724l23.677-99.977c.068-.29.189-.561.355-.8.165-.238.373-.438.611-.59.238-.15.501-.249.775-.29a1.95 1.95 0 0 1 .82.053l66.503 18.73a2.146 2.146 0 0 1 1.289 1.051 2.44 2.44 0 0 1 .23 1.725l-23.676 99.977c-.068.29-.188.561-.354.8a2.157 2.157 0 0 1-.612.589 2.014 2.014 0 0 1-.527.238Z"/>
  <path fill="#fff" d="m98.367 36.376-.12.51 70.284 19.796.121-.51-70.285-19.796Zm-2.174 9.182-.12.51 70.283 19.795.121-.51-70.284-19.795Zm-2.174 9.182-.121.51 70.284 19.795.121-.51L94.019 54.74Zm-2.175 9.181-.12.51 70.284 19.795.121-.51-70.285-19.795Zm-2.174 9.182-.121.51 70.284 19.795.121-.51L89.67 73.103Zm-2.175 9.181-.12.51 70.284 19.795.121-.51-70.285-19.795Zm-2.174 9.182-.12.51 70.284 19.795.12-.51-70.284-19.795Zm-2.174 9.181-.121.51 70.284 19.796.121-.51-70.284-19.796Zm-2.175 9.182-.12.51 70.284 19.795.121-.51-70.285-19.795Zm-2.174 9.181-.12.51 70.284 19.796.12-.51-70.284-19.796Zm-2.174 9.182-.121.51 70.284 19.795.121-.51-70.284-19.795Z"/>
  <path fill="#F2F2F2" d="M135.865 142.308c-.35.1-.719.1-1.069.001l-66.503-18.731a2.15 2.15 0 0 1-1.29-1.051 2.445 2.445 0 0 1-.23-1.725L90.45 20.825c.069-.29.19-.56.355-.799.166-.238.373-.439.611-.59.238-.15.502-.25.775-.29.274-.041.553-.024.82.052l66.504 18.73a2.15 2.15 0 0 1 1.289 1.052c.285.52.367 1.14.23 1.725l-23.677 99.976c-.068.29-.188.562-.354.8a2.13 2.13 0 0 1-.612.589 2.023 2.023 0 0 1-.526.238Z"/>
  <path fill="#fff" d="m89.694 24.693-.121.51 70.284 19.795.121-.51-70.284-19.795Zm-2.174 9.181-.121.51 70.284 19.796.121-.51-70.285-19.796Zm-2.175 9.182-.12.51 70.284 19.795.12-.51-70.284-19.795Zm-2.175 9.181-.12.51 70.284 19.796.121-.51-70.284-19.796Zm-2.174 9.182-.12.51 70.284 19.795.121-.51L80.996 61.42ZM78.822 70.6l-.121.51 70.284 19.796.121-.51L78.822 70.6Zm-2.175 9.182-.12.51 70.284 19.795.121-.51-70.284-19.795Zm-2.174 9.182-.12.51 70.284 19.795.12-.51-70.284-19.795Zm-2.174 9.181-.121.51 70.284 19.796.121-.51-70.284-19.796Zm-2.175 9.182-.12.51 70.284 19.795.121-.51-70.285-19.795Zm-2.174 9.181-.12.51 70.284 19.796.12-.51-70.284-19.796Z"/>
  <path fill="#1C2D40" d="M98.307 16.81 6.132 43.262l34.696 138.684 92.175-26.453c.331-.095.613-.328.784-.649.171-.32.216-.702.127-1.06L99.894 17.802a1.398 1.398 0 0 0-.605-.85 1.212 1.212 0 0 0-.982-.142ZM45.072 176.626c-.453.13-.932.111-1.376-.053a2.4 2.4 0 0 1-1.121-.869 2.703 2.703 0 0 1-.488-1.394 2.72 2.72 0 0 1 .309-1.447 2.434 2.434 0 0 1 1.002-1.014c.42-.223.893-.306 1.358-.239.465.067.902.282 1.255.617.353.335.607.776.73 1.265.081.326.103.665.063.998-.04.334-.14.655-.295.946a2.493 2.493 0 0 1-.608.75 2.29 2.29 0 0 1-.83.44Zm-3.154-12.608c-.453.13-.932.112-1.376-.052a2.402 2.402 0 0 1-1.121-.87 2.698 2.698 0 0 1-.489-1.393 2.722 2.722 0 0 1 .31-1.448 2.44 2.44 0 0 1 1.002-1.014c.42-.223.892-.306 1.358-.239.465.068.902.283 1.255.618.353.335.607.775.73 1.265.081.325.103.664.063.998-.04.333-.14.654-.295.945a2.491 2.491 0 0 1-.609.75 2.289 2.289 0 0 1-.828.44Zm-3.154-12.607c-.453.13-.932.111-1.377-.053a2.407 2.407 0 0 1-1.12-.869 2.703 2.703 0 0 1-.489-1.394 2.723 2.723 0 0 1 .31-1.448 2.44 2.44 0 0 1 1.002-1.014c.42-.223.892-.306 1.357-.238.466.067.902.282 1.256.617.353.335.607.775.73 1.265.081.326.102.665.063.998a2.68 2.68 0 0 1-.296.946 2.493 2.493 0 0 1-.608.75 2.305 2.305 0 0 1-.828.44Zm-3.155-12.608c-.452.13-.931.112-1.376-.052a2.41 2.41 0 0 1-1.12-.87 2.703 2.703 0 0 1-.489-1.393 2.723 2.723 0 0 1 .31-1.448 2.44 2.44 0 0 1 1.002-1.014c.42-.223.892-.306 1.357-.239a2.31 2.31 0 0 1 1.256.618c.353.335.607.775.73 1.265.081.325.102.664.063.997-.04.334-.14.655-.296.946a2.493 2.493 0 0 1-.608.75 2.29 2.29 0 0 1-.829.44Zm-3.154-12.608c-.453.13-.931.112-1.376-.052a2.403 2.403 0 0 1-1.12-.87 2.695 2.695 0 0 1-.489-1.393 2.722 2.722 0 0 1 .31-1.448 2.44 2.44 0 0 1 1.002-1.014c.42-.223.892-.306 1.357-.238.465.067.902.282 1.255.617.354.335.608.775.73 1.265a2.748 2.748 0 0 1-.232 1.944 2.504 2.504 0 0 1-.608.75 2.286 2.286 0 0 1-.829.439Zm-3.154-12.607c-.453.13-.931.112-1.376-.053a2.4 2.4 0 0 1-1.121-.869 2.703 2.703 0 0 1-.488-1.394 2.72 2.72 0 0 1 .309-1.447 2.434 2.434 0 0 1 1.002-1.014c.42-.223.893-.306 1.358-.239.465.067.902.282 1.255.617.354.335.608.776.73 1.266a2.744 2.744 0 0 1-.232 1.943 2.493 2.493 0 0 1-.608.75 2.29 2.29 0 0 1-.829.44Zm-3.154-12.608c-.453.13-.932.112-1.376-.052a2.402 2.402 0 0 1-1.121-.87 2.698 2.698 0 0 1-.488-1.393 2.722 2.722 0 0 1 .309-1.448 2.44 2.44 0 0 1 1.002-1.014c.42-.223.893-.306 1.358-.239.465.068.902.283 1.255.618.354.335.608.775.73 1.265a2.748 2.748 0 0 1-.232 1.943 2.5 2.5 0 0 1-.608.75 2.273 2.273 0 0 1-.83.44Zm-3.154-12.607c-.453.13-.932.111-1.376-.053a2.404 2.404 0 0 1-1.121-.87 2.701 2.701 0 0 1-.488-1.393 2.72 2.72 0 0 1 .309-1.448 2.439 2.439 0 0 1 1.002-1.014c.42-.222.893-.306 1.358-.238.465.067.902.282 1.255.617.353.335.607.775.73 1.265.081.326.103.665.063.998-.04.334-.14.655-.295.946-.155.29-.362.546-.608.75a2.293 2.293 0 0 1-.83.44Zm-3.154-12.608c-.453.13-.932.112-1.376-.052a2.403 2.403 0 0 1-1.122-.87 2.701 2.701 0 0 1-.488-1.393 2.722 2.722 0 0 1 .31-1.448 2.44 2.44 0 0 1 1.002-1.014 2.21 2.21 0 0 1 1.358-.239c.465.068.901.282 1.255.618.353.335.607.775.73 1.265.081.325.102.664.063.997-.04.334-.14.655-.296.946a2.47 2.47 0 0 1-.608.75 2.292 2.292 0 0 1-.828.44Zm-3.155-12.608c-.452.13-.931.112-1.376-.052a2.403 2.403 0 0 1-1.12-.87 2.7 2.7 0 0 1-.489-1.393 2.722 2.722 0 0 1 .31-1.448 2.44 2.44 0 0 1 1.002-1.014 2.21 2.21 0 0 1 1.357-.238c.465.067.902.282 1.256.617.353.335.607.775.73 1.265.081.325.102.664.063.998a2.68 2.68 0 0 1-.296.946 2.492 2.492 0 0 1-.608.75 2.29 2.29 0 0 1-.829.44ZM13.53 50.55c-.452.13-.931.112-1.376-.052a2.404 2.404 0 0 1-1.12-.87 2.702 2.702 0 0 1-.489-1.394 2.721 2.721 0 0 1 .31-1.447 2.438 2.438 0 0 1 1.002-1.014 2.21 2.21 0 0 1 1.357-.239 2.31 2.31 0 0 1 1.255.617c.354.335.608.776.73 1.266.082.325.103.664.063.997a2.69 2.69 0 0 1-.295.946 2.494 2.494 0 0 1-.608.75 2.29 2.29 0 0 1-.829.44Z" style="mix-blend-mode:darken"/>
  <path fill="#2F2E41" d="M8.047 50.917c-.618.177-6.042 1.7-6.316.606-.274-1.094 5.135-2.68 5.753-2.857l.112.45c-3.19.916-5.162 1.895-5.423 2.28.406.194 2.571-.014 5.761-.93 3.183-.913 5.154-1.89 5.421-2.277-.192-.077-.918-.147-2.733.197l-.077-.46c3.076-.58 3.206-.062 3.254.134.274 1.094-5.135 2.68-5.752 2.857ZM11.145 63.3c-.618.177-6.042 1.7-6.316.605-.274-1.094 5.135-2.68 5.753-2.857l.112.45c-3.19.916-5.162 1.896-5.423 2.28.406.194 2.57-.013 5.761-.929 3.183-.913 5.153-1.891 5.421-2.277-.192-.078-.918-.147-2.733.196l-.077-.459c3.075-.581 3.205-.062 3.254.133.274 1.094-5.135 2.68-5.752 2.858Zm3.154 12.607c-.618.177-6.042 1.7-6.316.606-.274-1.094 5.135-2.68 5.753-2.857l.112.45c-3.19.916-5.162 1.895-5.423 2.28.406.194 2.571-.014 5.761-.93 3.183-.913 5.154-1.89 5.421-2.277-.192-.077-.918-.147-2.733.197l-.077-.46c3.076-.58 3.205-.062 3.254.134.274 1.094-5.135 2.68-5.752 2.857Zm3.154 12.608c-.618.177-6.042 1.7-6.316.606-.273-1.094 5.135-2.68 5.753-2.858l.112.45c-3.19.916-5.162 1.896-5.423 2.28.406.194 2.571-.013 5.761-.929 3.183-.913 5.154-1.89 5.422-2.277-.193-.077-.92-.147-2.734.196l-.076-.459c3.075-.581 3.205-.062 3.253.133.274 1.094-5.134 2.68-5.752 2.858Zm3.154 12.607c-.617.177-6.042 1.7-6.316.606-.273-1.094 5.135-2.68 5.753-2.857l.113.45c-3.19.916-5.163 1.896-5.423 2.28.405.194 2.57-.013 5.76-.929 3.184-.913 5.154-1.891 5.422-2.278-.193-.077-.92-.146-2.734.197l-.076-.459c3.075-.581 3.205-.062 3.254.133.273 1.094-5.135 2.68-5.753 2.857Zm3.154 12.608c-.617.177-6.042 1.7-6.315.606-.274-1.094 5.134-2.68 5.752-2.858l.113.451c-3.19.915-5.162 1.895-5.423 2.28.405.193 2.57-.014 5.76-.929 3.184-.914 5.154-1.892 5.422-2.278-.193-.077-.919-.147-2.734.196l-.076-.458c3.075-.582 3.205-.063 3.254.132.274 1.095-5.135 2.681-5.753 2.858Zm3.155 12.607c-.618.178-6.043 1.701-6.316.606-.274-1.094 5.135-2.68 5.752-2.857l.113.45c-3.19.916-5.162 1.896-5.423 2.281.405.193 2.57-.014 5.76-.93 3.184-.913 5.154-1.891 5.422-2.277-.193-.078-.919-.147-2.734.196l-.076-.459c3.075-.581 3.205-.062 3.254.133.274 1.094-5.135 2.68-5.752 2.857Zm3.154 12.608c-.618.177-6.042 1.7-6.316.606-.274-1.094 5.135-2.68 5.752-2.857l.113.45c-3.19.915-5.162 1.896-5.423 2.28.405.194 2.57-.014 5.761-.929 3.183-.914 5.153-1.892 5.421-2.278-.193-.077-.919-.147-2.733.197l-.077-.459c3.075-.582 3.205-.063 3.254.133.274 1.094-5.135 2.68-5.752 2.857Zm3.154 12.608c-.618.177-6.042 1.7-6.316.606-.274-1.095 5.135-2.681 5.753-2.858l.112.45c-3.19.916-5.162 1.896-5.423 2.281.406.193 2.571-.014 5.761-.93 3.183-.913 5.154-1.891 5.421-2.277-.192-.077-.918-.147-2.733.196l-.077-.459c3.076-.581 3.205-.062 3.254.133.274 1.094-5.135 2.68-5.752 2.858Zm3.154 12.607c-.618.177-6.042 1.7-6.316.606-.273-1.094 5.135-2.68 5.753-2.857l.112.45c-3.19.916-5.162 1.896-5.423 2.28.406.194 2.571-.014 5.761-.929 3.184-.914 5.154-1.891 5.422-2.278-.193-.077-.92-.146-2.734.197l-.077-.459c3.076-.581 3.206-.063 3.254.133.274 1.094-5.134 2.68-5.752 2.857Zm3.154 12.608c-.617.177-6.042 1.7-6.315.606-.274-1.094 5.134-2.68 5.752-2.858l.113.451c-3.19.915-5.163 1.895-5.423 2.28.405.193 2.57-.014 5.76-.929 3.184-.914 5.154-1.892 5.422-2.278-.193-.077-.92-.147-2.734.196l-.076-.458c3.075-.582 3.205-.063 3.254.132.273 1.095-5.135 2.681-5.753 2.858Z"/>
  <path fill="#fff" d="M92.741 75.233 46.966 88.37a1.314 1.314 0 0 1-1.064-.155 1.516 1.516 0 0 1-.655-.92l-4.844-19.362a1.62 1.62 0 0 1 .138-1.148c.185-.347.49-.6.849-.703l45.775-13.137a1.314 1.314 0 0 1 1.063.155c.323.201.558.532.656.92l4.844 19.362a1.62 1.62 0 0 1-.138 1.148c-.185.347-.49.6-.849.703Z"/>
  <path fill="#413F79" d="m71.765 64.483-11.652 3.344a1.01 1.01 0 0 1-.818-.119 1.165 1.165 0 0 1-.504-.709 1.245 1.245 0 0 1 .106-.883c.142-.267.377-.462.653-.54l11.652-3.345c.276-.079.57-.036.818.119s.429.41.504.709a1.25 1.25 0 0 1-.106.883 1.085 1.085 0 0 1-.653.54Zm7.858 3.777-24.552 7.046a1.01 1.01 0 0 1-.818-.118 1.165 1.165 0 0 1-.504-.709 1.246 1.246 0 0 1 .105-.883c.143-.268.378-.462.654-.541l24.552-7.046c.276-.08.57-.037.818.118s.43.41.504.709c.075.298.037.616-.106.883a1.085 1.085 0 0 1-.653.541Zm1.408 5.628L56.48 80.934a1.01 1.01 0 0 1-.818-.118 1.165 1.165 0 0 1-.504-.709 1.245 1.245 0 0 1 .106-.883c.142-.267.377-.462.653-.54l24.552-7.047c.276-.08.57-.037.818.119.248.155.43.41.504.708a1.24 1.24 0 0 1-.106.884 1.085 1.085 0 0 1-.653.54Z"/>
  <path fill="#F2F2F2" d="M140.232 204.357c26.757 0 48.448-4.279 48.448-9.558s-21.691-9.559-48.448-9.559c-26.758 0-48.449 4.28-48.449 9.559 0 5.279 21.691 9.558 48.449 9.558Z"/>
  <path fill="#413F79" d="m173.505 109.959-8.644 4.671.56 1.193 8.643-4.671-.559-1.193Z"/>
  <path fill="#FBBEBE" d="m172.099 101.272-.388 2.495s.583 17.26-3.689 11.853c-4.271-5.406-1.359-12.684-1.359-12.684l1.165-2.08 4.271.416Zm-24.851-79.849s-.776 8.734-1.165 9.15c-.388.415 5.825 8.317 5.825 8.317l5.436-5.406s-.388-7.902.777-9.565c1.164-1.664-10.873-2.496-10.873-2.496Z"/>
  <path fill="#000" d="M147.248 21.423s-.776 8.734-1.165 9.15c-.388.415 5.825 8.317 5.825 8.317l5.436-5.406s-.388-7.902.777-9.565c1.164-1.664-10.873-2.496-10.873-2.496Z" opacity=".1"/>
  <path fill="#464646" d="M132.881 180.705v7.486l-2.718.416-3.883-1.248 1.165-7.901 5.436 1.247Z"/>
  <path fill="#000" d="M129.386 184.448s-1.165-3.327-3.106-2.911c-1.942.416-2.33 2.911-2.33 2.911s-1.553 6.238-3.883 8.318c-2.33 2.079-4.659 7.486 0 8.317 4.66.832 8.543-1.247 8.543-1.663 0-.416 1.165-2.911 3.106-3.327 1.942-.416 3.495-.832 3.495-2.495 0-1.664-1.165-3.327-1.165-3.327s-.388-7.889-1.165-6.856a8.551 8.551 0 0 0-1.165 2.697l-2.33-1.664Z"/>
  <path fill="#464646" d="m149.578 176.962-1.553 6.238 3.883.832 1.941-2.079.388-5.406-4.659.415Z"/>
  <path fill="#000" d="M149.19 182.369s1.553-1.248 2.329-1.248h1.165s0-2.911 1.942-2.911c1.941 0 1.553 2.079 1.553 2.079s4.271 7.07 5.436 8.318c1.165 1.248 7.378 4.991 2.33 6.654-5.048 1.664-8.543 1.664-10.872-1.248 0 0-2.33-1.247-3.883-1.247-1.554 0-3.495-.832-3.495-2.08 0-1.247 1.165-3.743 1.165-3.743s.776-7.485 1.165-6.654c.388.832 1.165 2.08 1.165 2.08Z"/>
  <path fill="#576A80" d="M132.493 81.31v13.724s-4.272 26.616-4.272 35.35c0 8.733-6.601 50.321-3.494 51.153 3.106.832 10.484 2.079 10.872.832.388-1.248 3.107-40.756 3.495-41.172.388-.416 8.542-33.271 8.542-33.271l1.554.416.776 37.429s-3.883 33.687-1.941 33.687c1.941 0 10.096-.416 10.096-2.912 0-2.495 4.271-48.657 4.271-48.657s5.048-36.598 3.106-40.34c-1.941-3.744-1.941-5.823-1.941-5.823l-31.064-.416Z"/>
  <path fill="#FBBEBE" d="M153.655 27.87c4.289 0 7.766-3.724 7.766-8.318 0-4.594-3.477-8.318-7.766-8.318s-7.766 3.724-7.766 8.318c0 4.594 3.477 8.317 7.766 8.317Z"/>
  <path fill="#000" d="M151.908 33.9s-4.854-4.367-5.242-6.03c0 0-2.524 2.703-2.524 3.118 0 .416-10.873 1.664-13.591 4.991s-5.048 10.397-5.048 10.397l6.601 13.308s.389 7.486.389 8.318c0 .832-1.942 14.14-1.165 14.556.776.415 8.542 4.574 15.144 3.742 6.601-.831 13.202-2.079 15.143-2.079 1.942 0 3.495.832 3.495 0s-1.165-2.495-1.165-3.327c0-.832-.388-2.911-.388-4.159 0-1.247-.777-3.327-.777-4.99 0-1.664 8.543-24.121 8.543-24.121s-.389-7.07-6.601-10.397c-6.213-3.327-6.99-4.575-6.99-4.575s-.121-2.495-.449-2.495c-.327 0-1.492 3.743-4.599 4.159l-.776-.416Z"/>
  <path fill="#FBBEBE" d="m130.939 89.212 2.719 4.574 6.989-1.663-5.048-6.238-4.66 3.327Z"/>
  <path fill="#000" d="m168.993 44.297 2.33 3.327s4.659 24.12 3.883 32.854c-.777 8.734-1.553 15.388-1.553 15.388s1.553 6.238.388 6.238-8.154.416-8.154-.832c0-1.247.776-9.15.776-9.15l-1.941-18.298-4.272-6.238 8.543-23.29Z"/>
  <path fill="#151414" d="M148.33 16.67c.476-.216 1.026-.04 1.536-.133.599-.108 1.134-.583 1.739-.523.286.057.565.154.828.288 0 0 .275.104.421.11.146.005 0-.554.427-.078a.488.488 0 0 0 .168-.138.545.545 0 0 0 .016-.637 2.324 2.324 0 0 0 1.38-.636c.076-.085.165-.156.263-.211a.804.804 0 0 1 .676.113l.889.438c.2.076.376.21.508.39.105.176.126.413.276.548.191.173.476.088.726.105a.908.908 0 0 1 .591.314c.154.179.242.412.247.656-.004.279-.099.622.108.793.119.099.289.083.429.144.363.158.365.7.311 1.115-.054.416-.027.965.346 1.093.263.09.532-.102.805-.145.412-.065.793.21 1.16.422.367.211.854.354 1.172.066.295-.268.276-.759.195-1.164a6.691 6.691 0 0 0-.57-1.669 1.123 1.123 0 0 1-.165-.519.979.979 0 0 1 .14-.364.917.917 0 0 1 .268-.27c.449-.381.966-.764 1.111-1.358.107-.435-.013-.895-.004-1.345.012-.547.215-1.093.119-1.631-.172-.976-1.186-1.446-1.841-2.149-.899-.967-1.191-2.513-2.252-3.268-.85-.604-1.96-.532-2.927-.878-1.062-.38-1.917-1.251-2.965-1.675a3.88 3.88 0 0 0-3.512.33c-.313.249-.662.44-1.033.565a3.462 3.462 0 0 1-.939-.011 3.425 3.425 0 0 0-1.793.396c-.213.091-.39.257-.502.472-.188.446.085 1.143-.326 1.357-.192.1-.418.004-.631.009-.414.01-.733.396-.93.786a3.811 3.811 0 0 1-.652 1.123c-.506.475-1.426.553-1.558 1.26-.002.3.014.598.048.895-.039.626-.664 1.102-.632 1.729.038.723.895 1.076 1.124 1.757.175.518-.055 1.08-.213 1.604s-.205 1.197.203 1.532c.16.132.366.186.529.313.422.33.417.993.37 1.55a.754.754 0 0 0 .153.664.551.551 0 0 0 .47.06 1.87 1.87 0 0 0 .7-.354c.208-.168.383-.38.512-.623.136-.24.163-.453.41-.581.168-.087.372-.01.542-.122.812-.535.533-2.062 1.529-2.515Z"/>
  <path fill="#000" d="m126.668 45.129-1.165 1.247s-6.989 22.458-4.659 27.448c2.33 4.99 6.989 17.467 8.542 17.051 1.554-.416 6.99-4.159 6.99-4.574 0-.416-6.601-12.06-6.601-12.06s-.777-2.496-.389-2.912c.389-.416.389 0 0-.832-.388-.832-.388 0 .389-.832.776-.831.776-.831.776-1.247 0-.416 2.33-10.813 2.33-10.813l-6.213-12.476Z"/>
  <path fill="#2F2E41" d="m132.687 93.994 8.543-2.91 1.164 2.91-9.319 2.08-.388-2.08Z"/>
  <path fill="#000" d="m132.687 93.994 8.543-2.91 1.164 2.91-9.319 2.08-.388-2.08Zm11.649-62.797 6.601 5.822.777-1.248-7.378-4.575Zm13.202 1.663-4.659 2.911.388 1.248 4.271-4.159Z" opacity=".1"/>
</svg>
